<?xml version="1.0" encoding="utf-8"?>
<!-- Generator: Adobe Illustrator 17.1.0, SVG Export Plug-In . SVG Version: 6.00 Build 0)  -->
<!DOCTYPE svg PUBLIC "-//W3C//DTD SVG 1.1//EN" "http://www.w3.org/Graphics/SVG/1.1/DTD/svg11.dtd">
<svg version="1.1" id="Layer_1" xmlns="http://www.w3.org/2000/svg" xmlns:xlink="http://www.w3.org/1999/xlink" x="0px" y="0px"
	 viewBox="0 0 92.4 92.4" enable-background="new 0 0 92.4 92.4" xml:space="preserve">
<g>
	<g>
		<path fill="#C9C9C9" d="M15.8,91.5c-1.2,1.2-3.1,1.2-4.2,0L0.9,80.8c-1.2-1.2-1.2-3.1,0-4.2l25.2-25.2c1.2-1.2,3.1-1.2,4.2,0
			L41.1,62c1.2,1.2,1.2,3.1,0,4.2L15.8,91.5z"/>
	</g>
	<g>
		<circle fill="#FFFFFF" cx="52.9" cy="39.5" r="34.5"/>
		<path fill="#C9C9C9" d="M52.9,78.9c-10.5,0-20.4-4.1-27.9-11.6C9.6,52,9.6,26.9,25,11.6C32.5,4.1,42.4,0,52.9,0
			c10.5,0,20.4,4.1,27.9,11.6c15.4,15.4,15.4,40.4,0,55.8C73.4,74.8,63.5,78.9,52.9,78.9z M52.9,10c-7.9,0-15.3,3.1-20.8,8.6
			c-11.5,11.5-11.5,30.2,0,41.7c5.6,5.6,13,8.6,20.8,8.6c7.9,0,15.3-3.1,20.8-8.6c11.5-11.5,11.5-30.2,0-41.7
			C68.2,13.1,60.8,10,52.9,10z"/>
	</g>
</g>
</svg>
